<?xml version="1.0" encoding="UTF-8" standalone="no"?>
<!-- Generator: Adobe Illustrator 25.4.1, SVG Export Plug-In . SVG Version: 6.00 Build 0)  -->

<svg
   version="1.1"
   id="Ebene_1"
   x="0px"
   y="0px"
   viewBox="0 0 1920 1080.0001"
   xml:space="preserve"
   sodipodi:docname="logo_dresden-concept_1080p.svg"
   width="1920"
   height="1080"
   inkscape:version="1.3.1 (91b66b0783, 2023-11-16)"
   xmlns:inkscape="http://www.inkscape.org/namespaces/inkscape"
   xmlns:sodipodi="http://sodipodi.sourceforge.net/DTD/sodipodi-0.dtd"
   xmlns="http://www.w3.org/2000/svg"
   xmlns:svg="http://www.w3.org/2000/svg"><defs
   id="defs54">
	
	
	
	
</defs><sodipodi:namedview
   id="namedview54"
   pagecolor="#d2fcee"
   bordercolor="#666666"
   borderopacity="1.0"
   inkscape:showpageshadow="2"
   inkscape:pageopacity="0.0"
   inkscape:pagecheckerboard="0"
   inkscape:deskcolor="#d1d1d1"
   inkscape:zoom="0.10352826"
   inkscape:cx="2395.4812"
   inkscape:cy="-2231.2748"
   inkscape:window-width="1920"
   inkscape:window-height="1006"
   inkscape:window-x="1920"
   inkscape:window-y="0"
   inkscape:window-maximized="1"
   inkscape:current-layer="Ebene_1" />
<style
   type="text/css"
   id="style1">
	.st0{fill:#192D64;}
	.st1{fill:#0A9BA0;}
	.st2{fill:#A0DCF0;}
	.st3{fill:#649BBE;}
	.st4{fill:#326491;}
	.st5{fill:#37B48C;}
	.st6{fill:#CDDC28;}
	.st7{fill:#A0C850;}
</style>
<rect
   style="fill:#ffffff;fill-opacity:1;stroke:none;stroke-width:7.559;stroke-linecap:round;stroke-linejoin:round;stroke-miterlimit:3;stroke-opacity:1;paint-order:stroke fill markers"
   id="rect1"
   width="1920"
   height="1080"
   x="-4.5474735e-13"
   y="1.1368684e-13" /><g
   id="g1"
   transform="translate(1601.4045,910.69817)"><g
     id="g7"
     transform="translate(-10.268,-14.173)">
		<path
   class="st0"
   d="m 15.935,81.558 c -2.818,0 -5.587,-1.731 -5.587,-6.428 0,-4.696 2.769,-6.403 5.587,-6.403 1.731,0 2.942,0.495 4.129,1.756 l -1.731,1.68 c -0.791,-0.865 -1.409,-1.186 -2.398,-1.186 -0.964,0 -1.78,0.395 -2.324,1.112 -0.544,0.692 -0.741,1.582 -0.741,3.041 0,1.459 0.198,2.374 0.741,3.066 0.544,0.716 1.359,1.113 2.324,1.113 0.989,0 1.607,-0.322 2.398,-1.187 l 1.731,1.656 c -1.187,1.26 -2.398,1.78 -4.129,1.78 z"
   id="path1" />
		<path
   class="st0"
   d="m 33.525,80.074 c -0.816,0.841 -2.052,1.484 -3.757,1.484 -1.707,0 -2.918,-0.643 -3.733,-1.484 -1.187,-1.236 -1.483,-2.818 -1.483,-4.944 0,-2.101 0.296,-3.683 1.483,-4.919 0.816,-0.841 2.027,-1.484 3.733,-1.484 1.706,0 2.942,0.643 3.757,1.484 1.187,1.236 1.484,2.818 1.484,4.919 0,2.126 -0.297,3.708 -1.484,4.944 z m -1.904,-8.38 c -0.47,-0.47 -1.113,-0.716 -1.854,-0.716 -0.743,0 -1.361,0.247 -1.83,0.716 -0.767,0.767 -0.865,2.077 -0.865,3.436 0,1.361 0.098,2.67 0.865,3.436 0.47,0.47 1.088,0.743 1.83,0.743 0.741,0 1.385,-0.273 1.854,-0.743 0.767,-0.767 0.865,-2.076 0.865,-3.436 0,-1.359 -0.098,-2.67 -0.865,-3.436 z"
   id="path2" />
		<path
   class="st0"
   d="m 48.377,81.41 v -7.639 c 0,-1.953 -1.113,-2.793 -2.521,-2.793 -1.41,0 -2.597,0.865 -2.597,2.793 V 81.41 H 40.738 V 68.876 h 2.472 v 1.261 c 0.865,-0.939 2.077,-1.41 3.337,-1.41 1.286,0 2.349,0.42 3.091,1.138 0.963,0.939 1.26,2.126 1.26,3.535 v 8.01 z"
   id="path3" />
		<path
   class="st0"
   d="m 62.018,81.558 c -2.818,0 -5.587,-1.731 -5.587,-6.428 0,-4.696 2.769,-6.403 5.587,-6.403 1.731,0 2.942,0.495 4.129,1.756 l -1.731,1.68 c -0.791,-0.865 -1.409,-1.186 -2.398,-1.186 -0.964,0 -1.78,0.395 -2.324,1.112 -0.544,0.692 -0.741,1.582 -0.741,3.041 0,1.459 0.198,2.374 0.741,3.066 0.544,0.716 1.359,1.113 2.324,1.113 0.989,0 1.607,-0.322 2.398,-1.187 l 1.731,1.656 c -1.187,1.26 -2.398,1.78 -4.129,1.78 z"
   id="path4" />
		<path
   class="st0"
   d="m 73.057,75.871 c 0,2.151 1.137,3.51 3.189,3.51 1.409,0 2.15,-0.395 3.04,-1.285 l 1.607,1.508 c -1.285,1.286 -2.497,1.953 -4.697,1.953 -3.139,0 -5.636,-1.656 -5.636,-6.428 0,-4.054 2.102,-6.403 5.315,-6.403 3.362,0 5.315,2.472 5.315,6.033 v 1.112 z m 5.291,-3.46 c -0.395,-0.94 -1.285,-1.582 -2.472,-1.582 -1.187,0 -2.101,0.642 -2.497,1.582 -0.247,0.569 -0.296,0.939 -0.321,1.706 h 5.636 c -0.025,-0.767 -0.1,-1.137 -0.346,-1.706 z"
   id="path5" />
		<path
   class="st0"
   d="m 95.663,80.445 c -0.692,0.692 -1.78,1.113 -3.041,1.113 -1.334,0 -2.373,-0.346 -3.288,-1.434 v 6.353 H 86.813 V 68.876 h 2.472 v 1.335 c 0.939,-1.138 1.953,-1.484 3.313,-1.484 1.26,0 2.373,0.42 3.065,1.113 1.261,1.261 1.41,3.387 1.41,5.29 0,1.904 -0.149,4.054 -1.41,5.315 z m -3.708,-9.468 c -2.274,0 -2.621,1.928 -2.621,4.153 0,2.225 0.346,4.179 2.621,4.179 2.275,0 2.595,-1.953 2.595,-4.179 0.001,-2.224 -0.32,-4.153 -2.595,-4.153 z"
   id="path6" />
		<path
   class="st0"
   d="m 106.618,81.41 c -2.349,0 -3.436,-1.682 -3.436,-3.485 v -6.898 h -1.435 v -1.928 h 1.435 v -3.807 h 2.521 v 3.807 h 2.423 v 1.928 h -2.423 V 77.8 c 0,0.915 0.444,1.459 1.385,1.459 h 1.038 v 2.151 z"
   id="path7" />
	</g><g
     id="g15"
     transform="translate(-10.268,-14.173)">
		<g
   id="g14">
			<path
   class="st0"
   d="m 21.333,55.256 c -1.113,1.113 -2.72,1.656 -4.549,1.656 h -6.18 V 39.311 h 6.18 c 1.829,0 3.436,0.544 4.549,1.656 1.903,1.903 1.78,4.475 1.78,7.021 0,2.547 0.124,5.365 -1.78,7.268 z m -1.83,-12.36 C 18.762,42.08 17.772,41.709 16.512,41.709 h -3.239 v 12.806 h 3.239 c 1.26,0 2.249,-0.371 2.991,-1.187 0.915,-1.013 0.94,-2.917 0.94,-5.339 10e-4,-2.424 -0.025,-4.08 -0.94,-5.093 z"
   id="path8" />
			<path
   class="st0"
   d="m 39.031,56.913 -3.708,-7.416 h -3.337 v 7.416 h -2.67 V 39.311 h 6.822 c 3.338,0 5.464,2.151 5.464,5.142 0,2.521 -1.533,4.129 -3.51,4.672 l 4.054,7.788 z m -3.09,-15.204 h -3.955 v 5.513 h 3.955 c 1.78,0 2.992,-1.013 2.992,-2.744 0,-1.731 -1.212,-2.769 -2.992,-2.769 z"
   id="path9" />
			<path
   class="st0"
   d="M 47.817,56.913 V 39.311 h 11.248 v 2.398 h -8.578 v 5.142 h 7.317 v 2.374 h -7.317 v 5.29 h 8.578 v 2.398 H 47.817 Z"
   id="path10" />
			<path
   class="st0"
   d="m 70.331,57.061 c -2.646,0 -4.549,-0.618 -6.23,-2.324 l 1.78,-1.756 c 1.286,1.285 2.695,1.682 4.5,1.682 2.3,0 3.634,-0.989 3.634,-2.695 0,-0.767 -0.223,-1.41 -0.692,-1.83 -0.444,-0.419 -0.89,-0.593 -1.928,-0.741 l -2.077,-0.296 c -1.434,-0.199 -2.57,-0.692 -3.337,-1.41 -0.866,-0.816 -1.285,-1.928 -1.285,-3.362 0,-3.066 2.224,-5.167 5.883,-5.167 2.324,0 3.956,0.593 5.464,2.003 l -1.707,1.68 c -1.088,-1.037 -2.348,-1.359 -3.832,-1.359 -2.077,0 -3.214,1.187 -3.214,2.744 0,0.643 0.198,1.212 0.667,1.632 0.446,0.395 1.162,0.692 1.977,0.816 l 2.003,0.296 c 1.632,0.248 2.546,0.643 3.289,1.31 0.963,0.841 1.434,2.102 1.434,3.61 0,3.239 -2.646,5.167 -6.329,5.167 z"
   id="path11" />
			<path
   class="st0"
   d="m 93.155,55.256 c -1.113,1.113 -2.72,1.656 -4.549,1.656 h -6.18 V 39.311 h 6.18 c 1.829,0 3.436,0.544 4.549,1.656 1.903,1.903 1.78,4.475 1.78,7.021 0,2.547 0.123,5.365 -1.78,7.268 z m -1.83,-12.36 C 90.584,42.08 89.594,41.709 88.334,41.709 h -3.239 v 12.806 h 3.239 c 1.26,0 2.249,-0.371 2.991,-1.187 0.915,-1.013 0.94,-2.917 0.94,-5.339 0,-2.424 -0.025,-4.08 -0.94,-5.093 z"
   id="path12" />
			<path
   class="st0"
   d="M 101.138,56.913 V 39.311 h 11.248 v 2.398 h -8.578 v 5.142 h 7.317 v 2.374 h -7.317 v 5.29 h 8.578 v 2.398 z"
   id="path13" />
			<path
   class="st0"
   d="m 128.991,56.913 -8.134,-12.386 v 12.386 h -2.67 V 39.311 h 2.447 l 8.134,12.36 v -12.36 h 2.67 v 17.602 z"
   id="path14" />
		</g>
	</g><g
     id="g40"
     transform="translate(-10.268,-14.173)">
		<path
   class="st0"
   d="m 13.578,111.824 c -1.451,0 -2.401,-0.367 -3.31,-1.275 l 0.705,-0.705 c 0.8,0.8 1.546,1.058 2.632,1.058 1.41,0 2.278,-0.665 2.278,-1.791 0,-0.501 -0.149,-0.936 -0.461,-1.207 -0.312,-0.272 -0.556,-0.353 -1.261,-0.462 l -1.126,-0.176 c -0.76,-0.122 -1.356,-0.367 -1.777,-0.733 -0.489,-0.433 -0.733,-1.031 -0.733,-1.804 0,-1.641 1.179,-2.727 3.092,-2.727 1.234,0 2.048,0.312 2.875,1.058 l -0.664,0.665 c -0.597,-0.543 -1.235,-0.828 -2.252,-0.828 -1.288,0 -2.035,0.718 -2.035,1.791 0,0.474 0.136,0.854 0.435,1.112 0.298,0.258 0.8,0.448 1.302,0.53 l 1.058,0.163 c 0.91,0.135 1.356,0.325 1.763,0.678 0.53,0.448 0.813,1.112 0.813,1.912 0.001,1.696 -1.327,2.741 -3.334,2.741 z"
   id="path15" />
		<path
   class="st0"
   d="m 22.863,111.824 c -0.949,0 -1.817,-0.353 -2.469,-1.005 -0.908,-0.908 -0.908,-1.857 -0.908,-3.906 0,-2.048 0,-2.997 0.908,-3.907 0.652,-0.651 1.52,-1.003 2.469,-1.003 1.736,0 3.025,1.058 3.35,2.876 h -1.058 c -0.258,-1.18 -1.084,-1.953 -2.292,-1.953 -0.638,0 -1.248,0.243 -1.668,0.678 -0.61,0.623 -0.678,1.288 -0.678,3.31 0,2.021 0.068,2.685 0.678,3.31 0.42,0.433 1.031,0.678 1.668,0.678 1.208,0 2.062,-0.773 2.319,-1.953 h 1.031 c -0.311,1.817 -1.627,2.875 -3.35,2.875 z"
   id="path16" />
		<path
   class="st0"
   d="m 29.057,111.742 v -9.657 h 1.032 v 9.657 z"
   id="path17" />
		<path
   class="st0"
   d="m 33.362,111.742 v -9.657 h 5.996 v 0.922 h -4.964 v 3.405 h 4.231 v 0.923 h -4.231 v 3.485 h 4.964 v 0.923 h -5.996 z"
   id="path18" />
		<path
   class="st0"
   d="m 48.284,111.742 -5.127,-7.745 v 7.745 h -1.032 v -9.657 h 0.977 l 5.127,7.718 v -7.718 h 1.031 v 9.657 z"
   id="path19" />
		<path
   class="st0"
   d="m 55.654,111.824 c -0.949,0 -1.817,-0.353 -2.469,-1.005 -0.908,-0.908 -0.908,-1.857 -0.908,-3.906 0,-2.048 0,-2.997 0.908,-3.907 0.652,-0.651 1.52,-1.003 2.469,-1.003 1.736,0 3.025,1.058 3.35,2.876 h -1.058 c -0.258,-1.18 -1.084,-1.953 -2.292,-1.953 -0.638,0 -1.248,0.243 -1.668,0.678 -0.61,0.623 -0.678,1.288 -0.678,3.31 0,2.021 0.068,2.685 0.678,3.31 0.42,0.433 1.031,0.678 1.668,0.678 1.208,0 2.062,-0.773 2.319,-1.953 h 1.031 c -0.311,1.817 -1.626,2.875 -3.35,2.875 z"
   id="path20" />
		<path
   class="st0"
   d="m 61.848,111.742 v -9.657 h 5.996 v 0.922 H 62.88 v 3.405 h 4.231 v 0.923 H 62.88 v 3.485 h 4.964 v 0.923 h -5.996 z"
   id="path21" />
		<path
   class="st0"
   d="m 80.347,111.742 -0.774,-2.184 h -4.218 l -0.773,2.184 h -1.098 l 3.554,-9.657 h 0.868 l 3.54,9.657 z m -2.862,-8.179 -1.818,5.099 h 3.608 z"
   id="path22" />
		<path
   class="st0"
   d="m 90.087,111.742 -5.127,-7.745 v 7.745 h -1.032 v -9.657 h 0.977 l 5.127,7.718 v -7.718 h 1.031 v 9.657 z"
   id="path23" />
		<path
   class="st0"
   d="m 100.112,110.846 c -0.583,0.583 -1.437,0.895 -2.442,0.895 h -3.31 v -9.657 h 3.31 c 1.005,0 1.858,0.311 2.442,0.894 1.005,1.005 0.95,2.483 0.95,3.825 0,1.344 0.054,3.04 -0.95,4.043 z m -0.719,-7.134 c -0.502,-0.515 -1.153,-0.705 -1.899,-0.705 h -2.102 v 7.813 h 2.102 c 0.746,0 1.397,-0.19 1.899,-0.705 0.665,-0.691 0.638,-2.129 0.638,-3.31 0,-1.18 0.027,-2.401 -0.638,-3.093 z"
   id="path24" />
		<path
   class="st0"
   d="m 11.095,130.75 v -9.657 h 1.032 v 9.657 z"
   id="path25" />
		<path
   class="st0"
   d="m 21.558,130.75 -5.127,-7.745 v 7.745 H 15.4 v -9.657 h 0.977 l 5.127,7.718 v -7.718 h 1.031 v 9.657 z"
   id="path26" />
		<path
   class="st0"
   d="m 31.991,130.75 -5.127,-7.745 v 7.745 h -1.032 v -9.657 h 0.977 l 5.127,7.718 v -7.718 h 1.031 v 9.657 z"
   id="path27" />
		<path
   class="st0"
   d="m 41.83,129.827 c -0.651,0.652 -1.506,1.005 -2.469,1.005 -0.963,0 -1.817,-0.353 -2.469,-1.005 -0.908,-0.908 -0.908,-1.857 -0.908,-3.906 0,-2.049 0,-2.997 0.908,-3.907 0.652,-0.651 1.506,-1.003 2.469,-1.003 0.963,0 1.818,0.353 2.469,1.003 0.908,0.91 0.908,1.858 0.908,3.907 0,2.049 0,2.998 -0.908,3.906 z m -0.801,-7.202 c -0.42,-0.433 -1.031,-0.691 -1.668,-0.691 -0.637,0 -1.248,0.258 -1.668,0.691 -0.61,0.625 -0.678,1.275 -0.678,3.296 0,2.021 0.068,2.672 0.678,3.295 0.42,0.435 1.031,0.692 1.668,0.692 0.637,0 1.248,-0.258 1.668,-0.692 0.61,-0.623 0.678,-1.274 0.678,-3.295 0,-2.021 -0.067,-2.672 -0.678,-3.296 z"
   id="path28" />
		<path
   class="st0"
   d="m 48.627,130.75 h -0.841 l -3.174,-9.657 h 1.085 l 2.509,7.813 2.509,-7.813 H 51.8 Z"
   id="path29" />
		<path
   class="st0"
   d="m 59.063,130.75 -0.774,-2.184 h -4.218 l -0.773,2.184 H 52.2 l 3.554,-9.657 h 0.868 l 3.54,9.657 z m -2.861,-8.179 -1.818,5.099 h 3.608 z"
   id="path30" />
		<path
   class="st0"
   d="m 64.573,122.015 v 8.735 h -1.031 v -8.735 h -2.794 v -0.922 h 6.619 v 0.922 z"
   id="path31" />
		<path
   class="st0"
   d="m 69.965,130.75 v -9.657 h 1.032 v 9.657 z"
   id="path32" />
		<path
   class="st0"
   d="m 79.849,129.827 c -0.651,0.652 -1.506,1.005 -2.469,1.005 -0.963,0 -1.817,-0.353 -2.469,-1.005 -0.908,-0.908 -0.908,-1.857 -0.908,-3.906 0,-2.049 0,-2.997 0.908,-3.907 0.652,-0.651 1.506,-1.003 2.469,-1.003 0.963,0 1.818,0.353 2.469,1.003 0.908,0.91 0.908,1.858 0.908,3.907 0,2.049 10e-4,2.998 -0.908,3.906 z m -0.8,-7.202 c -0.42,-0.433 -1.031,-0.691 -1.668,-0.691 -0.638,0 -1.248,0.258 -1.668,0.691 -0.61,0.625 -0.678,1.275 -0.678,3.296 0,2.021 0.068,2.672 0.678,3.295 0.42,0.435 1.031,0.692 1.668,0.692 0.638,0 1.248,-0.258 1.668,-0.692 0.61,-0.623 0.678,-1.274 0.678,-3.295 0,-2.021 -0.068,-2.672 -0.678,-3.296 z"
   id="path33" />
		<path
   class="st0"
   d="m 89.932,130.75 -5.127,-7.745 v 7.745 h -1.032 v -9.657 h 0.977 l 5.127,7.718 v -7.718 h 1.031 v 9.657 z"
   id="path34" />
		<path
   class="st0"
   d="m 101.444,130.832 c -0.949,0 -1.817,-0.353 -2.469,-1.005 -0.908,-0.908 -0.908,-1.857 -0.908,-3.906 0,-2.049 0,-2.997 0.908,-3.907 0.652,-0.651 1.52,-1.003 2.469,-1.003 1.736,0 3.025,1.058 3.35,2.876 h -1.058 c -0.258,-1.18 -1.084,-1.953 -2.292,-1.953 -0.638,0 -1.248,0.243 -1.668,0.678 -0.61,0.623 -0.678,1.288 -0.678,3.31 0,2.022 0.068,2.685 0.678,3.31 0.42,0.433 1.031,0.678 1.668,0.678 1.208,0 2.062,-0.773 2.319,-1.953 h 1.031 c -0.311,1.817 -1.627,2.875 -3.35,2.875 z"
   id="path35" />
		<path
   class="st0"
   d="m 113.457,130.75 -0.774,-2.184 h -4.218 l -0.773,2.184 h -1.098 l 3.554,-9.657 h 0.868 l 3.54,9.657 z m -2.862,-8.179 -1.818,5.099 h 3.608 z"
   id="path36" />
		<path
   class="st0"
   d="m 124.282,130.75 v -7.338 l -2.646,5.819 h -0.881 l -2.685,-5.819 v 7.338 h -1.032 v -9.657 h 1.032 l 3.146,6.85 3.066,-6.85 h 1.031 v 9.657 z"
   id="path37" />
		<path
   class="st0"
   d="m 132.211,126.775 h -2.563 v 3.975 h -1.032 v -9.657 h 3.595 c 1.763,0 2.984,1.098 2.984,2.835 0,1.736 -1.221,2.847 -2.984,2.847 z m -0.095,-4.76 h -2.468 v 3.839 h 2.468 c 1.208,0 2.048,-0.652 2.048,-1.926 0,-1.276 -0.841,-1.913 -2.048,-1.913 z"
   id="path38" />
		<path
   class="st0"
   d="m 141.178,130.832 c -1.953,0 -3.364,-1.343 -3.364,-3.269 v -6.47 h 1.031 v 6.388 c 0,1.465 0.923,2.428 2.333,2.428 1.41,0 2.347,-0.963 2.347,-2.428 v -6.388 h 1.031 v 6.47 c 0,1.926 -1.424,3.269 -3.378,3.269 z"
   id="path39" />
		<path
   class="st0"
   d="m 150.357,130.832 c -1.451,0 -2.401,-0.367 -3.31,-1.275 l 0.705,-0.705 c 0.8,0.8 1.546,1.058 2.632,1.058 1.41,0 2.278,-0.665 2.278,-1.791 0,-0.501 -0.148,-0.936 -0.461,-1.207 -0.312,-0.272 -0.556,-0.353 -1.261,-0.462 l -1.126,-0.176 c -0.76,-0.122 -1.356,-0.367 -1.777,-0.733 -0.489,-0.433 -0.733,-1.031 -0.733,-1.804 0,-1.641 1.179,-2.727 3.092,-2.727 1.234,0 2.048,0.312 2.875,1.058 l -0.664,0.665 c -0.597,-0.543 -1.235,-0.828 -2.252,-0.828 -1.288,0 -2.035,0.718 -2.035,1.791 0,0.474 0.136,0.854 0.435,1.112 0.299,0.258 0.8,0.448 1.302,0.53 l 1.058,0.163 c 0.91,0.135 1.356,0.325 1.763,0.678 0.53,0.448 0.813,1.112 0.813,1.912 0.002,1.696 -1.327,2.741 -3.334,2.741 z"
   id="path40" />
	</g><g
     id="g47"
     transform="translate(-10.268,-14.173)">
		<polygon
   class="st1"
   points="276.403,103.98 224.477,155.906 276.403,139.533 "
   id="polygon40" />
		<polygon
   class="st2"
   points="276.403,66.099 276.403,139.533 301.543,91.239 "
   id="polygon41" />
		<polygon
   class="st3"
   points="249.617,39.313 301.543,91.239 285.171,39.313 "
   id="polygon42" />
		<polygon
   class="st4"
   points="211.737,39.313 285.171,39.313 236.877,14.173 "
   id="polygon43" />
		<polygon
   class="st0"
   points="184.951,66.099 236.877,14.173 184.951,30.545 "
   id="polygon44" />
		<polygon
   class="st5"
   points="249.617,130.765 176.183,130.765 224.477,155.906 "
   id="polygon45" />
		<polygon
   class="st6"
   points="184.951,103.98 184.951,30.545 159.811,78.839 "
   id="polygon46" />
		<polygon
   class="st7"
   points="211.737,130.765 159.811,78.839 176.183,130.765 "
   id="polygon47" />
	</g></g>
<g
   id="g49"
   transform="translate(-10.268,-14.173)">
</g>
<g
   id="g50"
   transform="translate(-10.268,-14.173)">
</g>
<g
   id="g51"
   transform="translate(-10.268,-14.173)">
</g>
<g
   id="g52"
   transform="translate(-10.268,-14.173)">
</g>
<g
   id="g53"
   transform="translate(-10.268,-14.173)">
</g>
<g
   id="g54"
   transform="translate(-10.268,-14.173)">
</g>
</svg>
